<mxfile host="app.diagrams.net" modified="2023-07-15T04:12:15.363Z" agent="Mozilla/5.0 (Macintosh; Intel Mac OS X 10_15_7) AppleWebKit/537.36 (KHTML, like Gecko) Chrome/114.0.0.0 Safari/537.36" etag="vcFzSumvcGI1RV7eRPDn" version="21.5.0" type="github" pages="3">
  <diagram id="C5RBs43oDa-KdzZeNtuy" name="Page-1">
    <mxGraphModel dx="1363" dy="844" grid="1" gridSize="10" guides="1" tooltips="1" connect="1" arrows="1" fold="1" page="1" pageScale="1" pageWidth="827" pageHeight="1169" math="0" shadow="0">
      <root>
        <mxCell id="WIyWlLk6GJQsqaUBKTNV-0" />
        <mxCell id="WIyWlLk6GJQsqaUBKTNV-1" parent="WIyWlLk6GJQsqaUBKTNV-0" />
        <mxCell id="7ihKN0zFtdanmbVQMNzB-4" value="Choreographer" style="shape=umlLifeline;perimeter=lifelinePerimeter;whiteSpace=wrap;html=1;container=1;dropTarget=0;collapsible=0;recursiveResize=0;outlineConnect=0;portConstraint=eastwest;newEdgeStyle={&quot;edgeStyle&quot;:&quot;elbowEdgeStyle&quot;,&quot;elbow&quot;:&quot;vertical&quot;,&quot;curved&quot;:0,&quot;rounded&quot;:0};" parent="WIyWlLk6GJQsqaUBKTNV-1" vertex="1">
          <mxGeometry x="480" y="40" width="100" height="980" as="geometry" />
        </mxCell>
        <mxCell id="7ihKN0zFtdanmbVQMNzB-8" value="" style="html=1;points=[];perimeter=orthogonalPerimeter;outlineConnect=0;targetShapes=umlLifeline;portConstraint=eastwest;newEdgeStyle={&quot;edgeStyle&quot;:&quot;elbowEdgeStyle&quot;,&quot;elbow&quot;:&quot;vertical&quot;,&quot;curved&quot;:0,&quot;rounded&quot;:0};" parent="7ihKN0zFtdanmbVQMNzB-4" vertex="1">
          <mxGeometry x="45" y="160" width="10" height="530" as="geometry" />
        </mxCell>
        <mxCell id="7ihKN0zFtdanmbVQMNzB-5" value="ViewRootImpl" style="shape=umlLifeline;perimeter=lifelinePerimeter;whiteSpace=wrap;html=1;container=1;dropTarget=0;collapsible=0;recursiveResize=0;outlineConnect=0;portConstraint=eastwest;newEdgeStyle={&quot;edgeStyle&quot;:&quot;elbowEdgeStyle&quot;,&quot;elbow&quot;:&quot;vertical&quot;,&quot;curved&quot;:0,&quot;rounded&quot;:0};" parent="WIyWlLk6GJQsqaUBKTNV-1" vertex="1">
          <mxGeometry x="120" y="40" width="100" height="990" as="geometry" />
        </mxCell>
        <mxCell id="7ihKN0zFtdanmbVQMNzB-23" value="" style="html=1;points=[];perimeter=orthogonalPerimeter;outlineConnect=0;targetShapes=umlLifeline;portConstraint=eastwest;newEdgeStyle={&quot;edgeStyle&quot;:&quot;elbowEdgeStyle&quot;,&quot;elbow&quot;:&quot;vertical&quot;,&quot;curved&quot;:0,&quot;rounded&quot;:0};" parent="7ihKN0zFtdanmbVQMNzB-5" vertex="1">
          <mxGeometry x="45" y="200" width="10" height="730" as="geometry" />
        </mxCell>
        <mxCell id="7ihKN0zFtdanmbVQMNzB-26" value="" style="html=1;points=[];perimeter=orthogonalPerimeter;outlineConnect=0;targetShapes=umlLifeline;portConstraint=eastwest;newEdgeStyle={&quot;edgeStyle&quot;:&quot;elbowEdgeStyle&quot;,&quot;elbow&quot;:&quot;vertical&quot;,&quot;curved&quot;:0,&quot;rounded&quot;:0};" parent="7ihKN0zFtdanmbVQMNzB-5" vertex="1">
          <mxGeometry x="50" y="230" width="10" height="670" as="geometry" />
        </mxCell>
        <mxCell id="7ihKN0zFtdanmbVQMNzB-27" value="doTraversal()" style="html=1;align=left;spacingLeft=2;endArrow=block;rounded=0;edgeStyle=orthogonalEdgeStyle;curved=0;rounded=0;" parent="7ihKN0zFtdanmbVQMNzB-5" target="7ihKN0zFtdanmbVQMNzB-26" edge="1">
          <mxGeometry relative="1" as="geometry">
            <mxPoint x="55" y="210" as="sourcePoint" />
            <Array as="points">
              <mxPoint x="85" y="240" />
            </Array>
          </mxGeometry>
        </mxCell>
        <mxCell id="7ihKN0zFtdanmbVQMNzB-28" value="" style="html=1;points=[];perimeter=orthogonalPerimeter;outlineConnect=0;targetShapes=umlLifeline;portConstraint=eastwest;newEdgeStyle={&quot;edgeStyle&quot;:&quot;elbowEdgeStyle&quot;,&quot;elbow&quot;:&quot;vertical&quot;,&quot;curved&quot;:0,&quot;rounded&quot;:0};" parent="7ihKN0zFtdanmbVQMNzB-5" vertex="1">
          <mxGeometry x="55" y="270" width="10" height="610" as="geometry" />
        </mxCell>
        <mxCell id="7ihKN0zFtdanmbVQMNzB-29" value="performTraversals()" style="html=1;align=left;spacingLeft=2;endArrow=block;rounded=0;edgeStyle=orthogonalEdgeStyle;curved=0;rounded=0;" parent="7ihKN0zFtdanmbVQMNzB-5" target="7ihKN0zFtdanmbVQMNzB-28" edge="1">
          <mxGeometry relative="1" as="geometry">
            <mxPoint x="60" y="250" as="sourcePoint" />
            <Array as="points">
              <mxPoint x="90" y="280" />
            </Array>
          </mxGeometry>
        </mxCell>
        <mxCell id="7ihKN0zFtdanmbVQMNzB-30" value="" style="html=1;points=[];perimeter=orthogonalPerimeter;outlineConnect=0;targetShapes=umlLifeline;portConstraint=eastwest;newEdgeStyle={&quot;edgeStyle&quot;:&quot;elbowEdgeStyle&quot;,&quot;elbow&quot;:&quot;vertical&quot;,&quot;curved&quot;:0,&quot;rounded&quot;:0};" parent="7ihKN0zFtdanmbVQMNzB-5" vertex="1">
          <mxGeometry x="60" y="300" width="10" height="40" as="geometry" />
        </mxCell>
        <mxCell id="7ihKN0zFtdanmbVQMNzB-31" value="performLayout()" style="html=1;align=left;spacingLeft=2;endArrow=block;rounded=0;edgeStyle=orthogonalEdgeStyle;curved=0;rounded=0;movable=1;resizable=1;rotatable=1;deletable=1;editable=1;locked=0;connectable=1;" parent="7ihKN0zFtdanmbVQMNzB-5" target="7ihKN0zFtdanmbVQMNzB-30" edge="1">
          <mxGeometry x="0.0019" relative="1" as="geometry">
            <mxPoint x="65" y="290" as="sourcePoint" />
            <Array as="points">
              <mxPoint x="95" y="320" />
            </Array>
            <mxPoint as="offset" />
          </mxGeometry>
        </mxCell>
        <mxCell id="7ihKN0zFtdanmbVQMNzB-32" value="" style="html=1;points=[];perimeter=orthogonalPerimeter;outlineConnect=0;targetShapes=umlLifeline;portConstraint=eastwest;newEdgeStyle={&quot;edgeStyle&quot;:&quot;elbowEdgeStyle&quot;,&quot;elbow&quot;:&quot;vertical&quot;,&quot;curved&quot;:0,&quot;rounded&quot;:0};" parent="7ihKN0zFtdanmbVQMNzB-5" vertex="1">
          <mxGeometry x="60" y="370" width="10" height="440" as="geometry" />
        </mxCell>
        <mxCell id="7ihKN0zFtdanmbVQMNzB-33" value="performDraw()" style="html=1;align=left;spacingLeft=2;endArrow=block;rounded=0;edgeStyle=orthogonalEdgeStyle;curved=0;rounded=0;" parent="7ihKN0zFtdanmbVQMNzB-5" target="7ihKN0zFtdanmbVQMNzB-32" edge="1">
          <mxGeometry relative="1" as="geometry">
            <mxPoint x="65" y="350" as="sourcePoint" />
            <Array as="points">
              <mxPoint x="95" y="380" />
            </Array>
          </mxGeometry>
        </mxCell>
        <mxCell id="7ihKN0zFtdanmbVQMNzB-34" value="" style="html=1;points=[];perimeter=orthogonalPerimeter;outlineConnect=0;targetShapes=umlLifeline;portConstraint=eastwest;newEdgeStyle={&quot;edgeStyle&quot;:&quot;elbowEdgeStyle&quot;,&quot;elbow&quot;:&quot;vertical&quot;,&quot;curved&quot;:0,&quot;rounded&quot;:0};" parent="7ihKN0zFtdanmbVQMNzB-5" vertex="1">
          <mxGeometry x="65" y="420" width="10" height="350" as="geometry" />
        </mxCell>
        <mxCell id="7ihKN0zFtdanmbVQMNzB-35" value="draw()" style="html=1;align=left;spacingLeft=2;endArrow=block;rounded=0;edgeStyle=orthogonalEdgeStyle;curved=0;rounded=0;" parent="7ihKN0zFtdanmbVQMNzB-5" target="7ihKN0zFtdanmbVQMNzB-34" edge="1">
          <mxGeometry relative="1" as="geometry">
            <mxPoint x="70" y="400" as="sourcePoint" />
            <Array as="points">
              <mxPoint x="100" y="430" />
            </Array>
          </mxGeometry>
        </mxCell>
        <mxCell id="7ihKN0zFtdanmbVQMNzB-41" value="" style="html=1;points=[];perimeter=orthogonalPerimeter;outlineConnect=0;targetShapes=umlLifeline;portConstraint=eastwest;newEdgeStyle={&quot;edgeStyle&quot;:&quot;elbowEdgeStyle&quot;,&quot;elbow&quot;:&quot;vertical&quot;,&quot;curved&quot;:0,&quot;rounded&quot;:0};" parent="7ihKN0zFtdanmbVQMNzB-5" vertex="1">
          <mxGeometry x="70" y="460" width="10" height="20" as="geometry" />
        </mxCell>
        <mxCell id="7ihKN0zFtdanmbVQMNzB-42" value="isHardwareEnabled(): isHardwareEnabled" style="html=1;align=left;spacingLeft=2;endArrow=block;rounded=0;edgeStyle=orthogonalEdgeStyle;curved=0;rounded=0;" parent="7ihKN0zFtdanmbVQMNzB-5" target="7ihKN0zFtdanmbVQMNzB-41" edge="1">
          <mxGeometry relative="1" as="geometry">
            <mxPoint x="75" y="440" as="sourcePoint" />
            <Array as="points">
              <mxPoint x="105" y="470" />
            </Array>
          </mxGeometry>
        </mxCell>
        <mxCell id="7ihKN0zFtdanmbVQMNzB-16" value="&lt;div style=&quot;&quot;&gt;postCallback(&lt;/div&gt;&lt;div style=&quot;&quot;&gt;&lt;span style=&quot;font-size: 11px;&quot;&gt;&amp;nbsp; &amp;nbsp; &amp;nbsp; &amp;nbsp; &amp;nbsp; &amp;nbsp; &amp;nbsp; &amp;nbsp; &amp;nbsp; &amp;nbsp; CALLBACK_TRAVERSAL, mTraversalRunnable)&lt;/span&gt;&lt;/div&gt;" style="html=1;verticalAlign=bottom;endArrow=block;edgeStyle=elbowEdgeStyle;elbow=vertical;curved=0;rounded=0;align=center;" parent="WIyWlLk6GJQsqaUBKTNV-1" target="7ihKN0zFtdanmbVQMNzB-4" edge="1">
          <mxGeometry width="80" relative="1" as="geometry">
            <mxPoint x="170" y="120" as="sourcePoint" />
            <mxPoint x="250" y="120" as="targetPoint" />
          </mxGeometry>
        </mxCell>
        <mxCell id="7ihKN0zFtdanmbVQMNzB-21" value="doFrame()" style="html=1;verticalAlign=bottom;startArrow=oval;startFill=1;endArrow=block;startSize=8;edgeStyle=elbowEdgeStyle;elbow=vertical;curved=0;rounded=0;" parent="WIyWlLk6GJQsqaUBKTNV-1" target="7ihKN0zFtdanmbVQMNzB-8" edge="1">
          <mxGeometry x="0.0033" width="60" relative="1" as="geometry">
            <mxPoint x="40" y="200" as="sourcePoint" />
            <mxPoint x="520" y="200" as="targetPoint" />
            <Array as="points">
              <mxPoint x="100" y="200" />
            </Array>
            <mxPoint as="offset" />
          </mxGeometry>
        </mxCell>
        <mxCell id="7ihKN0zFtdanmbVQMNzB-24" value="callback.run()" style="html=1;verticalAlign=bottom;endArrow=block;edgeStyle=elbowEdgeStyle;elbow=horizontal;curved=0;rounded=0;" parent="WIyWlLk6GJQsqaUBKTNV-1" target="7ihKN0zFtdanmbVQMNzB-23" edge="1">
          <mxGeometry relative="1" as="geometry">
            <mxPoint x="525" y="240" as="sourcePoint" />
            <mxPoint x="175" y="220" as="targetPoint" />
            <Array as="points">
              <mxPoint x="180" y="240" />
            </Array>
          </mxGeometry>
        </mxCell>
        <mxCell id="7ihKN0zFtdanmbVQMNzB-44" value="" style="edgeStyle=orthogonalEdgeStyle;rounded=0;orthogonalLoop=1;jettySize=auto;html=1;" parent="WIyWlLk6GJQsqaUBKTNV-1" source="7ihKN0zFtdanmbVQMNzB-36" target="7ihKN0zFtdanmbVQMNzB-8" edge="1">
          <mxGeometry relative="1" as="geometry" />
        </mxCell>
        <mxCell id="7ihKN0zFtdanmbVQMNzB-45" value="ThreadedRenderer" style="shape=umlLifeline;perimeter=lifelinePerimeter;whiteSpace=wrap;html=1;container=1;dropTarget=0;collapsible=0;recursiveResize=0;outlineConnect=0;portConstraint=eastwest;newEdgeStyle={&quot;edgeStyle&quot;:&quot;elbowEdgeStyle&quot;,&quot;elbow&quot;:&quot;vertical&quot;,&quot;curved&quot;:0,&quot;rounded&quot;:0};" parent="WIyWlLk6GJQsqaUBKTNV-1" vertex="1">
          <mxGeometry x="720" y="40" width="120" height="930" as="geometry" />
        </mxCell>
        <mxCell id="4iRX6ErLAoEKX5xWJKcz-0" value="" style="html=1;points=[];perimeter=orthogonalPerimeter;outlineConnect=0;targetShapes=umlLifeline;portConstraint=eastwest;newEdgeStyle={&quot;edgeStyle&quot;:&quot;elbowEdgeStyle&quot;,&quot;elbow&quot;:&quot;vertical&quot;,&quot;curved&quot;:0,&quot;rounded&quot;:0};labelPosition=center;verticalLabelPosition=bottom;align=center;verticalAlign=top;" parent="7ihKN0zFtdanmbVQMNzB-45" vertex="1">
          <mxGeometry x="55" y="525" width="10" height="80" as="geometry" />
        </mxCell>
        <mxCell id="7ihKN0zFtdanmbVQMNzB-36" value="alt" style="shape=umlFrame;whiteSpace=wrap;html=1;pointerEvents=0;recursiveResize=0;container=1;collapsible=0;width=50;height=20;movable=1;resizable=1;rotatable=1;deletable=1;editable=1;locked=0;connectable=1;" parent="WIyWlLk6GJQsqaUBKTNV-1" vertex="1">
          <mxGeometry x="130" y="530" width="770" height="360" as="geometry" />
        </mxCell>
        <mxCell id="7ihKN0zFtdanmbVQMNzB-37" value="[isHardwareEnabled]" style="text;html=1;" parent="7ihKN0zFtdanmbVQMNzB-36" vertex="1">
          <mxGeometry width="120" height="30" relative="1" as="geometry">
            <mxPoint x="20" y="30" as="offset" />
          </mxGeometry>
        </mxCell>
        <mxCell id="7ihKN0zFtdanmbVQMNzB-38" value="[else]" style="line;strokeWidth=1;dashed=1;labelPosition=center;verticalLabelPosition=bottom;align=left;verticalAlign=top;spacingLeft=20;spacingTop=15;html=1;whiteSpace=wrap;movable=1;resizable=1;rotatable=1;deletable=1;editable=1;locked=0;connectable=1;" parent="7ihKN0zFtdanmbVQMNzB-36" vertex="1">
          <mxGeometry y="150" width="770" height="10" as="geometry" />
        </mxCell>
        <mxCell id="7ihKN0zFtdanmbVQMNzB-46" value="draw(mView, mAttachInfo, this)" style="html=1;verticalAlign=bottom;endArrow=block;edgeStyle=elbowEdgeStyle;elbow=vertical;curved=0;rounded=0;entryX=-0.003;entryY=0.494;entryDx=0;entryDy=0;entryPerimeter=0;" parent="7ihKN0zFtdanmbVQMNzB-36" target="nnyYFPqdDwJkSZ-rs8Is-0" edge="1">
          <mxGeometry x="-0.1952" y="10" width="80" relative="1" as="geometry">
            <mxPoint x="65" y="69.99666666666678" as="sourcePoint" />
            <mxPoint x="550" y="70.27272727272725" as="targetPoint" />
            <mxPoint as="offset" />
          </mxGeometry>
        </mxCell>
        <mxCell id="7ihKN0zFtdanmbVQMNzB-47" value="" style="html=1;points=[];perimeter=orthogonalPerimeter;outlineConnect=0;targetShapes=umlLifeline;portConstraint=eastwest;newEdgeStyle={&quot;edgeStyle&quot;:&quot;elbowEdgeStyle&quot;,&quot;elbow&quot;:&quot;vertical&quot;,&quot;curved&quot;:0,&quot;rounded&quot;:0};" parent="7ihKN0zFtdanmbVQMNzB-36" vertex="1">
          <mxGeometry x="60" y="210" width="10" height="40" as="geometry" />
        </mxCell>
        <mxCell id="7ihKN0zFtdanmbVQMNzB-48" value="drawSoftware()" style="html=1;align=left;spacingLeft=2;endArrow=block;rounded=0;edgeStyle=orthogonalEdgeStyle;curved=0;rounded=0;" parent="7ihKN0zFtdanmbVQMNzB-36" target="7ihKN0zFtdanmbVQMNzB-47" edge="1">
          <mxGeometry relative="1" as="geometry">
            <mxPoint x="65" y="190" as="sourcePoint" />
            <Array as="points">
              <mxPoint x="95" y="220" />
            </Array>
          </mxGeometry>
        </mxCell>
        <UserObject label="Ref" link="data:page/id,VSddMOuIAMOgz7o5hPur" id="nnyYFPqdDwJkSZ-rs8Is-0">
          <mxCell style="shape=umlFrame;whiteSpace=wrap;html=1;pointerEvents=0;recursiveResize=0;container=1;collapsible=0;width=32;height=25;fillStyle=auto;gradientColor=none;" parent="7ihKN0zFtdanmbVQMNzB-36" vertex="1">
            <mxGeometry x="575" y="40" width="150" height="60" as="geometry" />
          </mxCell>
        </UserObject>
        <mxCell id="nnyYFPqdDwJkSZ-rs8Is-1" value="HardwareRender" style="text;align=center;html=1;fillColor=default;" parent="nnyYFPqdDwJkSZ-rs8Is-0" vertex="1">
          <mxGeometry width="90" height="30" relative="1" as="geometry">
            <mxPoint x="32" y="15" as="offset" />
          </mxGeometry>
        </mxCell>
      </root>
    </mxGraphModel>
  </diagram>
  <diagram id="VSddMOuIAMOgz7o5hPur" name="HardwareRender">
    <mxGraphModel dx="954" dy="591" grid="1" gridSize="10" guides="1" tooltips="1" connect="1" arrows="1" fold="1" page="1" pageScale="1" pageWidth="827" pageHeight="1169" math="0" shadow="0">
      <root>
        <mxCell id="0" />
        <mxCell id="1" parent="0" />
      </root>
    </mxGraphModel>
  </diagram>
  <diagram id="C8zKUpHASYSgdxeYthRB" name="硬件渲染类图">
    <mxGraphModel dx="1272" dy="788" grid="1" gridSize="10" guides="1" tooltips="1" connect="1" arrows="1" fold="1" page="1" pageScale="1" pageWidth="827" pageHeight="1169" math="0" shadow="0">
      <root>
        <mxCell id="0" />
        <mxCell id="1" parent="0" />
        <mxCell id="Yinaff7ol6FTUJSGRFLB-5" value="HardwareRenderer" style="swimlane;fontStyle=1;align=center;verticalAlign=top;childLayout=stackLayout;horizontal=1;startSize=26;horizontalStack=0;resizeParent=1;resizeParentMax=0;resizeLast=0;collapsible=1;marginBottom=0;whiteSpace=wrap;html=1;" parent="1" vertex="1">
          <mxGeometry x="80" y="80" width="160" height="86" as="geometry">
            <mxRectangle x="80" y="80" width="150" height="30" as="alternateBounds" />
          </mxGeometry>
        </mxCell>
        <mxCell id="Yinaff7ol6FTUJSGRFLB-6" value="+ field: type" style="text;strokeColor=none;fillColor=none;align=left;verticalAlign=top;spacingLeft=4;spacingRight=4;overflow=hidden;rotatable=0;points=[[0,0.5],[1,0.5]];portConstraint=eastwest;whiteSpace=wrap;html=1;" parent="Yinaff7ol6FTUJSGRFLB-5" vertex="1">
          <mxGeometry y="26" width="160" height="26" as="geometry" />
        </mxCell>
        <mxCell id="Yinaff7ol6FTUJSGRFLB-7" value="" style="line;strokeWidth=1;fillColor=none;align=left;verticalAlign=middle;spacingTop=-1;spacingLeft=3;spacingRight=3;rotatable=0;labelPosition=right;points=[];portConstraint=eastwest;strokeColor=inherit;" parent="Yinaff7ol6FTUJSGRFLB-5" vertex="1">
          <mxGeometry y="52" width="160" height="8" as="geometry" />
        </mxCell>
        <mxCell id="Yinaff7ol6FTUJSGRFLB-8" value="+ method(type): type" style="text;strokeColor=none;fillColor=none;align=left;verticalAlign=top;spacingLeft=4;spacingRight=4;overflow=hidden;rotatable=0;points=[[0,0.5],[1,0.5]];portConstraint=eastwest;whiteSpace=wrap;html=1;" parent="Yinaff7ol6FTUJSGRFLB-5" vertex="1">
          <mxGeometry y="60" width="160" height="26" as="geometry" />
        </mxCell>
        <mxCell id="5UV1vFj2wkVHv9vOr-_S-1" value="AttachInfo" style="swimlane;fontStyle=0;childLayout=stackLayout;horizontal=1;startSize=26;fillColor=none;horizontalStack=0;resizeParent=1;resizeParentMax=0;resizeLast=0;collapsible=1;marginBottom=0;whiteSpace=wrap;html=1;" vertex="1" parent="1">
          <mxGeometry x="450" y="62" width="330" height="104" as="geometry" />
        </mxCell>
        <mxCell id="5UV1vFj2wkVHv9vOr-_S-2" value="+ mHardwareAccelerated: boolean&lt;br&gt;" style="text;strokeColor=none;fillColor=none;align=left;verticalAlign=top;spacingLeft=4;spacingRight=4;overflow=hidden;rotatable=0;points=[[0,0.5],[1,0.5]];portConstraint=eastwest;whiteSpace=wrap;html=1;" vertex="1" parent="5UV1vFj2wkVHv9vOr-_S-1">
          <mxGeometry y="26" width="330" height="26" as="geometry" />
        </mxCell>
        <mxCell id="5UV1vFj2wkVHv9vOr-_S-3" value="+ mThreadedRenderer: ThreadedRenderer" style="text;strokeColor=none;fillColor=none;align=left;verticalAlign=top;spacingLeft=4;spacingRight=4;overflow=hidden;rotatable=0;points=[[0,0.5],[1,0.5]];portConstraint=eastwest;whiteSpace=wrap;html=1;" vertex="1" parent="5UV1vFj2wkVHv9vOr-_S-1">
          <mxGeometry y="52" width="330" height="26" as="geometry" />
        </mxCell>
        <mxCell id="5UV1vFj2wkVHv9vOr-_S-4" value="+ field: type" style="text;strokeColor=none;fillColor=none;align=left;verticalAlign=top;spacingLeft=4;spacingRight=4;overflow=hidden;rotatable=0;points=[[0,0.5],[1,0.5]];portConstraint=eastwest;whiteSpace=wrap;html=1;" vertex="1" parent="5UV1vFj2wkVHv9vOr-_S-1">
          <mxGeometry y="78" width="330" height="26" as="geometry" />
        </mxCell>
        <mxCell id="5UV1vFj2wkVHv9vOr-_S-5" value="Classname" style="swimlane;fontStyle=0;childLayout=stackLayout;horizontal=1;startSize=26;fillColor=none;horizontalStack=0;resizeParent=1;resizeParentMax=0;resizeLast=0;collapsible=1;marginBottom=0;whiteSpace=wrap;html=1;" vertex="1" parent="1">
          <mxGeometry x="250" y="50" width="140" height="104" as="geometry" />
        </mxCell>
        <mxCell id="5UV1vFj2wkVHv9vOr-_S-6" value="+ field: type" style="text;strokeColor=none;fillColor=none;align=left;verticalAlign=top;spacingLeft=4;spacingRight=4;overflow=hidden;rotatable=0;points=[[0,0.5],[1,0.5]];portConstraint=eastwest;whiteSpace=wrap;html=1;" vertex="1" parent="5UV1vFj2wkVHv9vOr-_S-5">
          <mxGeometry y="26" width="140" height="26" as="geometry" />
        </mxCell>
        <mxCell id="5UV1vFj2wkVHv9vOr-_S-7" value="+ field: type" style="text;strokeColor=none;fillColor=none;align=left;verticalAlign=top;spacingLeft=4;spacingRight=4;overflow=hidden;rotatable=0;points=[[0,0.5],[1,0.5]];portConstraint=eastwest;whiteSpace=wrap;html=1;" vertex="1" parent="5UV1vFj2wkVHv9vOr-_S-5">
          <mxGeometry y="52" width="140" height="26" as="geometry" />
        </mxCell>
        <mxCell id="5UV1vFj2wkVHv9vOr-_S-8" value="+ field: type" style="text;strokeColor=none;fillColor=none;align=left;verticalAlign=top;spacingLeft=4;spacingRight=4;overflow=hidden;rotatable=0;points=[[0,0.5],[1,0.5]];portConstraint=eastwest;whiteSpace=wrap;html=1;" vertex="1" parent="5UV1vFj2wkVHv9vOr-_S-5">
          <mxGeometry y="78" width="140" height="26" as="geometry" />
        </mxCell>
        <mxCell id="5UV1vFj2wkVHv9vOr-_S-15" value="RenderProxy" style="swimlane;fontStyle=1;align=center;verticalAlign=top;childLayout=stackLayout;horizontal=1;startSize=26;horizontalStack=0;resizeParent=1;resizeParentMax=0;resizeLast=0;collapsible=1;marginBottom=0;whiteSpace=wrap;html=1;" vertex="1" parent="1">
          <mxGeometry x="80" y="280" width="230" height="138" as="geometry" />
        </mxCell>
        <mxCell id="5UV1vFj2wkVHv9vOr-_S-16" value=" + mDrawFrameTask: DrawFrameTask" style="text;strokeColor=none;fillColor=none;align=left;verticalAlign=top;spacingLeft=4;spacingRight=4;overflow=hidden;rotatable=0;points=[[0,0.5],[1,0.5]];portConstraint=eastwest;whiteSpace=wrap;html=1;" vertex="1" parent="5UV1vFj2wkVHv9vOr-_S-15">
          <mxGeometry y="26" width="230" height="26" as="geometry" />
        </mxCell>
        <mxCell id="5UV1vFj2wkVHv9vOr-_S-17" value="" style="line;strokeWidth=1;fillColor=none;align=left;verticalAlign=middle;spacingTop=-1;spacingLeft=3;spacingRight=3;rotatable=0;labelPosition=right;points=[];portConstraint=eastwest;strokeColor=inherit;" vertex="1" parent="5UV1vFj2wkVHv9vOr-_S-15">
          <mxGeometry y="52" width="230" height="8" as="geometry" />
        </mxCell>
        <mxCell id="5UV1vFj2wkVHv9vOr-_S-28" value=" +&amp;nbsp;mRenderThread:&amp;nbsp;RenderThread&amp;amp; " style="text;strokeColor=none;fillColor=none;align=left;verticalAlign=top;spacingLeft=4;spacingRight=4;overflow=hidden;rotatable=0;points=[[0,0.5],[1,0.5]];portConstraint=eastwest;whiteSpace=wrap;html=1;" vertex="1" parent="5UV1vFj2wkVHv9vOr-_S-15">
          <mxGeometry y="60" width="230" height="26" as="geometry" />
        </mxCell>
        <mxCell id="5UV1vFj2wkVHv9vOr-_S-29" value=" + CanvasContext* mContext" style="text;strokeColor=none;fillColor=none;align=left;verticalAlign=top;spacingLeft=4;spacingRight=4;overflow=hidden;rotatable=0;points=[[0,0.5],[1,0.5]];portConstraint=eastwest;whiteSpace=wrap;html=1;" vertex="1" parent="5UV1vFj2wkVHv9vOr-_S-15">
          <mxGeometry y="86" width="230" height="26" as="geometry" />
        </mxCell>
        <mxCell id="5UV1vFj2wkVHv9vOr-_S-30" value=" + mDrawFrameTask: DrawFrameTask" style="text;strokeColor=none;fillColor=none;align=left;verticalAlign=top;spacingLeft=4;spacingRight=4;overflow=hidden;rotatable=0;points=[[0,0.5],[1,0.5]];portConstraint=eastwest;whiteSpace=wrap;html=1;" vertex="1" parent="5UV1vFj2wkVHv9vOr-_S-15">
          <mxGeometry y="112" width="230" height="26" as="geometry" />
        </mxCell>
        <mxCell id="5UV1vFj2wkVHv9vOr-_S-19" value="CanvasContext" style="swimlane;fontStyle=1;align=center;verticalAlign=top;childLayout=stackLayout;horizontal=1;startSize=26;horizontalStack=0;resizeParent=1;resizeParentMax=0;resizeLast=0;collapsible=1;marginBottom=0;whiteSpace=wrap;html=1;" vertex="1" parent="1">
          <mxGeometry x="334" y="290" width="236" height="154" as="geometry" />
        </mxCell>
        <mxCell id="5UV1vFj2wkVHv9vOr-_S-20" value="+ mRenderThread:&amp;nbsp;RenderThread&amp;amp;" style="text;strokeColor=none;fillColor=none;align=left;verticalAlign=top;spacingLeft=4;spacingRight=4;overflow=hidden;rotatable=0;points=[[0,0.5],[1,0.5]];portConstraint=eastwest;whiteSpace=wrap;html=1;" vertex="1" parent="5UV1vFj2wkVHv9vOr-_S-19">
          <mxGeometry y="26" width="236" height="26" as="geometry" />
        </mxCell>
        <mxCell id="5UV1vFj2wkVHv9vOr-_S-32" value="+ ASurfaceControl* mSurfaceControl" style="text;strokeColor=none;fillColor=none;align=left;verticalAlign=top;spacingLeft=4;spacingRight=4;overflow=hidden;rotatable=0;points=[[0,0.5],[1,0.5]];portConstraint=eastwest;whiteSpace=wrap;html=1;" vertex="1" parent="5UV1vFj2wkVHv9vOr-_S-19">
          <mxGeometry y="52" width="236" height="26" as="geometry" />
        </mxCell>
        <mxCell id="5UV1vFj2wkVHv9vOr-_S-33" value="+ std::vector&amp;lt;sp&amp;lt;RenderNode&amp;gt;&amp;gt; mRenderNodes" style="text;strokeColor=none;fillColor=none;align=left;verticalAlign=top;spacingLeft=4;spacingRight=4;overflow=hidden;rotatable=0;points=[[0,0.5],[1,0.5]];portConstraint=eastwest;whiteSpace=wrap;html=1;" vertex="1" parent="5UV1vFj2wkVHv9vOr-_S-19">
          <mxGeometry y="78" width="236" height="42" as="geometry" />
        </mxCell>
        <mxCell id="5UV1vFj2wkVHv9vOr-_S-21" value="" style="line;strokeWidth=1;fillColor=none;align=left;verticalAlign=middle;spacingTop=-1;spacingLeft=3;spacingRight=3;rotatable=0;labelPosition=right;points=[];portConstraint=eastwest;strokeColor=inherit;" vertex="1" parent="5UV1vFj2wkVHv9vOr-_S-19">
          <mxGeometry y="120" width="236" height="8" as="geometry" />
        </mxCell>
        <mxCell id="5UV1vFj2wkVHv9vOr-_S-22" value="+ method(type): type" style="text;strokeColor=none;fillColor=none;align=left;verticalAlign=top;spacingLeft=4;spacingRight=4;overflow=hidden;rotatable=0;points=[[0,0.5],[1,0.5]];portConstraint=eastwest;whiteSpace=wrap;html=1;" vertex="1" parent="5UV1vFj2wkVHv9vOr-_S-19">
          <mxGeometry y="128" width="236" height="26" as="geometry" />
        </mxCell>
        <mxCell id="5UV1vFj2wkVHv9vOr-_S-23" value="Classname" style="swimlane;fontStyle=1;align=center;verticalAlign=top;childLayout=stackLayout;horizontal=1;startSize=26;horizontalStack=0;resizeParent=1;resizeParentMax=0;resizeLast=0;collapsible=1;marginBottom=0;whiteSpace=wrap;html=1;" vertex="1" parent="1">
          <mxGeometry x="630" y="290" width="230" height="86" as="geometry" />
        </mxCell>
        <mxCell id="5UV1vFj2wkVHv9vOr-_S-24" value="+ field: type" style="text;strokeColor=none;fillColor=none;align=left;verticalAlign=top;spacingLeft=4;spacingRight=4;overflow=hidden;rotatable=0;points=[[0,0.5],[1,0.5]];portConstraint=eastwest;whiteSpace=wrap;html=1;" vertex="1" parent="5UV1vFj2wkVHv9vOr-_S-23">
          <mxGeometry y="26" width="230" height="26" as="geometry" />
        </mxCell>
        <mxCell id="5UV1vFj2wkVHv9vOr-_S-25" value="" style="line;strokeWidth=1;fillColor=none;align=left;verticalAlign=middle;spacingTop=-1;spacingLeft=3;spacingRight=3;rotatable=0;labelPosition=right;points=[];portConstraint=eastwest;strokeColor=inherit;" vertex="1" parent="5UV1vFj2wkVHv9vOr-_S-23">
          <mxGeometry y="52" width="230" height="8" as="geometry" />
        </mxCell>
        <mxCell id="5UV1vFj2wkVHv9vOr-_S-26" value="+ method(type): type" style="text;strokeColor=none;fillColor=none;align=left;verticalAlign=top;spacingLeft=4;spacingRight=4;overflow=hidden;rotatable=0;points=[[0,0.5],[1,0.5]];portConstraint=eastwest;whiteSpace=wrap;html=1;" vertex="1" parent="5UV1vFj2wkVHv9vOr-_S-23">
          <mxGeometry y="60" width="230" height="26" as="geometry" />
        </mxCell>
      </root>
    </mxGraphModel>
  </diagram>
</mxfile>
